<?xml version="1.0" encoding="UTF-8" standalone="no"?>
<svg
   id="svg"
   version="1.1"
   width="400"
   height="400"
   viewBox="0, 0, 400,400"
   sodipodi:docname="BlenderCharacterProject_Icon.svg"
   inkscape:version="1.3.2 (091e20e, 2023-11-25, custom)"
   xmlns:inkscape="http://www.inkscape.org/namespaces/inkscape"
   xmlns:sodipodi="http://sodipodi.sourceforge.net/DTD/sodipodi-0.dtd"
   xmlns="http://www.w3.org/2000/svg"
   xmlns:svg="http://www.w3.org/2000/svg"
   xmlns:rdf="http://www.w3.org/1999/02/22-rdf-syntax-ns#"
   xmlns:cc="http://creativecommons.org/ns#"
   xmlns:dc="http://purl.org/dc/elements/1.1/">
  <metadata
     id="metadata13">
    <rdf:RDF>
      <cc:Work
         rdf:about="">
        <dc:format>image/svg+xml</dc:format>
        <dc:type
           rdf:resource="http://purl.org/dc/dcmitype/StillImage" />
        <dc:title />
      </cc:Work>
    </rdf:RDF>
  </metadata>
  <defs
     id="defs11" />
  <sodipodi:namedview
     pagecolor="#ffffff"
     bordercolor="#666666"
     borderopacity="1"
     objecttolerance="10"
     gridtolerance="10"
     guidetolerance="10"
     inkscape:pageopacity="0"
     inkscape:pageshadow="2"
     inkscape:window-width="3840"
     inkscape:window-height="2054"
     id="namedview9"
     showgrid="false"
     inkscape:zoom="3.825"
     inkscape:cx="197.77778"
     inkscape:cy="318.16993"
     inkscape:window-x="-11"
     inkscape:window-y="-11"
     inkscape:window-maximized="1"
     inkscape:current-layer="svgg"
     inkscape:document-rotation="0"
     inkscape:showpageshadow="0"
     inkscape:pagecheckerboard="1"
     inkscape:deskcolor="#d1d1d1" />
  <g
     id="svgg">
    <path
       id="path0"
       d="m 197.2,13.59 c -7.758,3.049 -9.451,9.851 -10.008,40.21 -0.186,10.12 -0.527,20.74 -0.758,23.6 -0.231,2.86 -0.605,8.89 -0.831,13.4 -0.227,4.51 -0.605,9.77 -0.84,11.689 -0.235,1.919 -0.661,14.609 -0.947,28.2 -0.611,29.126 -0.516,28.551 -4.735,28.493 -8.46322,-2.14225 -10.71468,-9.25236 -13.081,-15.782 0,-0.154 -0.251,-0.846 -0.557,-1.54 -0.777,-1.756 -3.85,-10.386 -3.846,-10.8 0.002,-0.186 -0.249,-0.906 -0.556,-1.6 -0.308,-0.693 -1.046,-2.7 -1.641,-4.46 -0.596,-1.76 -1.239,-3.56 -1.43,-4 -0.414,-0.951 -1.466,-3.917 -1.987,-5.6 -0.204,-0.66 -0.535,-1.56 -0.736,-2 -0.2,-0.44 -0.851,-2.24 -1.447,-4 -0.595,-1.76 -1.32,-3.74 -1.61,-4.4 -0.291,-0.66 -0.657,-1.74 -0.814,-2.4 -0.158,-0.66 -0.415,-1.38 -0.571,-1.6 -0.157,-0.22 -0.793,-1.84 -1.413,-3.6 -0.62,-1.76 -1.247,-3.38 -1.394,-3.6 -0.147,-0.22 -0.685,-1.57 -1.194,-3 -0.51,-1.43 -1.237,-3.32 -1.616,-4.2 -1.068,-2.478 -3.588,-8.966 -3.588,-9.237 0,-0.133 -0.251,-0.809 -0.557,-1.503 -0.307,-0.693 -1.31,-3.42 -2.229,-6.06 -0.92,-2.64 -1.929,-5.391 -2.243,-6.114 C 136.257,62.964 136,62.181 136,61.947 c 0,-0.234 -0.254,-0.993 -0.565,-1.687 -0.311,-0.693 -1.073,-2.43 -1.693,-3.86 -2.45,-5.648 -5.014,-9.699 -8.072,-12.757 C 114.917,32.889 105.193,41.5 108.78,58.6 c 0.23,1.1 0.614,2.99 0.851,4.2 0.527,2.679 0.922,3.98 4.376,14.4 1.495,4.51 3.109,9.55 3.586,11.2 0.477,1.65 1.051,3.54 1.275,4.2 0.414,1.22 0.821,2.689 2.33,8.4 1.006,3.812 1.745,6.678 2.626,10.2 0.358,1.43 0.799,2.96 0.979,3.4 0.181,0.44 0.529,1.61 0.773,2.6 0.245,0.99 0.814,3.15 1.266,4.8 0.452,1.65 1.062,3.9 1.355,5 1.487,5.571 2.28,8.432 3.601,13 0.795,2.75 1.781,6.26 2.191,7.8 0.41,1.54 1.14,4.15 1.623,5.8 5.639,19.292 7.068,34.911 5.177,56.599 -0.978,11.219 -1.239,13.764 -1.605,15.601 -0.218,1.1 -0.661,3.62 -0.982,5.6 -2.988,18.385 -4.201,20.801 -9.892,19.704 -16.487,-3.178 -27.417,-8.538 -42.11,-20.651 -1.76,-1.451 -3.29,-2.738 -3.4,-2.86 -1.463,-1.623 -10.633,-8.364 -14.2,-10.438 -5.298,-3.08 -14.211,-6.389 -20.4,-7.573 -1.32,-0.252 -3.12,-0.614 -4,-0.803 -7.1,-1.527 -15.403,-0.104 -18.239,3.126 -5.135,5.849 -3.861,10.217 4.239,14.526 0.66,0.351 3.36,1.772 6,3.157 7.110045,3.28254 12.895082,8.25385 17.71,12.912 3.689,3.575 7.334,7.027 8.099,7.67 0.765,0.644 3.561,3.164 6.214,5.6 5.844,5.367 7.122,6.486 9.154,8.007 2.601,1.948 9.628,8.893 12.721,12.573 1.595,1.897 2.996,3.54 3.113,3.65 0.118,0.11 2.078,2.45 4.357,5.2 8.488,10.242 28.844,31.596 35.432,37.17 0.88,0.744 3.92,3.531 6.755,6.192 2.835,2.661 5.535,5.167 6,5.569 3.921,3.391 10.049,9.994 11.066,11.922 0.274,0.521 0.629,1.037 0.788,1.147 0.728,0.504 3.182,6.148 4.087,9.4 2.345,8.426 3.067,14.138 4.298,34 0.245,3.96 0.541,7.695 0.658,8.3 l 0.212,1.1 h 53.71 53.71 l 0.268,-12.1 c 0.147,-6.655 0.442,-13.72 0.655,-15.7 0.213,-1.98 0.569,-5.793 0.791,-8.474 0.222,-2.681 0.599,-5.831 0.838,-7 1.288,-6.309 2.166,-10.074 3.06,-13.126 1.414,-4.83 2.788,-10.183 4.466,-17.4 2.173,-9.347 2.549,-10.973 3.098,-13.4 0.323,-1.43 0.849,-3.95 1.169,-5.6 0.319,-1.65 0.685,-3.33 0.813,-3.733 1.193,-3.758 3.455,-21.125 4.543,-34.867 0.575,-7.262 1.204,-42.742 0.93,-52.434 -0.242,-8.546 0.088,-11.579 1.953,-17.966 1.259,-4.312 3.505,-10.858 4.149,-12.091 0.318,-0.61 0.579,-1.262 0.581,-1.449 10e-4,-0.186 0.257,-0.906 0.569,-1.6 0.312,-0.693 1.669,-3.836 3.017,-6.985 1.347,-3.149 5.565,-12.059 9.372,-19.8 3.808,-7.741 7.599,-15.515 8.425,-17.275 6.334,-13.494 9.959,-20.342 16.619,-31.4 9.897,-16.432 12.271,-23.935 9.378,-29.642 -4.81,-9.494 -19.273,-0.258 -29.504,18.842 -3.267,6.099 -6.693,11.511 -9.876,15.6 -4.473,5.746 -7.415,10.312 -14.25,22.114 -3.213,5.547 -6.091,10.37 -6.395,10.717 -0.304,0.348 -0.553,0.77 -0.553,0.939 0,0.168 -0.336,0.784 -0.746,1.368 -0.411,0.584 -1.429,2.322 -2.262,3.862 -0.833,1.54 -1.847,3.278 -2.254,3.862 -0.406,0.584 -0.738,1.154 -0.738,1.266 0,0.621 -4.235,6.392 -5.944,8.102 -5.123,5.122 -12.393,5.689 -14.304,1.116 -1.165,-2.788 -0.622,-7.579 2.215,-19.546 1.509,-6.366 3.127,-14.491 4.222,-21.2 0.323,-1.98 0.701,-4.05 0.839,-4.6 0.348,-1.382 1.268,-6.976 1.974,-12 0.324,-2.31 0.699,-4.65 0.832,-5.2 0.133,-0.55 0.489,-2.62 0.789,-4.6 0.581,-3.826 1.617,-9.452 2.946,-16 0.805,-3.969 1.179,-5.679 2.841,-13 1.817,-8 2.062,-9.102 2.806,-12.6 5.254,-24.729 3.527,-35.8 -5.583,-35.8 -7.932,0 -12.6,7 -18.404,27.6 -0.465,1.65 -1.111,3.9 -1.435,5 -0.325,1.1 -1.14,4.07 -1.812,6.6 -0.673,2.53 -1.589,5.95 -2.037,7.6 -0.448,1.65 -1.054,3.9 -1.348,5 -0.293,1.1 -0.924,3.44 -1.401,5.2 -0.477,1.76 -1.108,4.1 -1.401,5.2 -0.293,1.1 -0.885,3.26 -1.314,4.8 -1.512,5.416 -2.555,9.22 -3.073,11.2 -0.287,1.1 -0.917,3.44 -1.4,5.2 -0.482,1.76 -1.111,4.1 -1.397,5.2 -0.287,1.1 -1.184,4.43 -1.993,7.4 -0.81,2.97 -1.732,6.544 -2.048,7.943 -0.317,1.398 -0.663,2.684 -0.77,2.857 -0.311,0.503 -1.966,8.078 -3.409,15.6 -2.322,12.104 -4.669,15.859 -10.203,16.318 -5.424,0.449 -6.006,-1.923 -6.595,-26.905 -0.223,-9.453 -0.568,-18.273 -0.767,-19.6 -0.198,-1.327 -0.474,-7.723 -0.613,-14.213 -0.138,-6.49 -0.431,-14.86 -0.649,-18.6 -0.219,-3.74 -0.652,-13.82 -0.963,-22.4 -0.589,-16.22 -1.208,-26.576 -1.794,-30 -1.97,-11.51 -7.423,-17.197 -14.007,-14.61 m 2.91,5.91 c 0.303,3.077 1.503,11.449 1.735,12.1 0.117,0.33 0.467,2.49 0.777,4.8 0.666,4.971 1.965,13.941 2.548,17.6 0.228,1.43 0.418,2.798 0.422,3.041 0.004,0.243 -1.042,1.266 -2.326,2.275 -2.634,2.069 -2.521,1.445 -1.458,8.084 0.317,1.98 0.769,4.95 1.005,6.6 1.352,9.459 2.378,16.453 4.02,27.4 0.463,3.08 1.076,7.31 1.363,9.4 l 0.522,3.8 -1.259,1.146 c -0.692,0.631 -2.305,1.971 -3.583,2.978 -1.948,1.536 -2.286,1.983 -2.088,2.772 0.13,0.518 0.496,2.904 0.812,5.304 0.316,2.4 0.677,4.776 0.801,5.281 0.124,0.506 0.493,2.989 0.82,5.519 0.326,2.53 0.845,6.31 1.152,8.4 0.308,2.09 0.923,6.32 1.368,9.4 0.445,3.08 1.193,8.21 1.662,11.4 0.86,5.846 1.389,9.565 2.561,18 0.352,2.53 0.811,5.5 1.021,6.6 0.209,1.1 0.488,3.08 0.62,4.4 0.132,1.32 0.433,3.281 0.671,4.358 0.389,1.765 0.354,2.021 -0.362,2.6 -0.436,0.353 -3.443,2.768 -6.683,5.367 l -5.89,4.725 -1.471,-1.118 c -0.808,-0.615 -1.74,-1.338 -2.07,-1.606 -2.711,-2.203 -7.623,-6.084 -8.572,-6.771 l -1.166,-0.845 0.482,-3.555 c 0.265,-1.955 0.742,-5.714 1.059,-8.353 0.317,-2.639 0.697,-5.339 0.844,-6 0.147,-0.661 0.502,-3.092 0.79,-5.402 0.287,-2.31 0.88,-6.9 1.317,-10.2 0.437,-3.3 1.075,-8.215 1.419,-10.923 0.343,-2.708 0.721,-5.318 0.841,-5.8 0.208,-0.835 0.543,-3.457 1.957,-15.277 0.341,-2.86 0.716,-5.56 0.832,-6 0.115,-0.44 0.475,-2.96 0.8,-5.6 l 0.589,-4.8 -0.914,-0.8 c -0.503,-0.44 -1.513,-1.25 -2.246,-1.8 -0.733,-0.55 -1.887,-1.473 -2.564,-2.051 l -1.232,-1.051 0.713,-5.749 c 1.415,-11.396 1.826,-14.524 2.041,-15.528 0.243,-1.129 1.118,-7.641 2.019,-15.021 0.322,-2.64 0.68,-5.16 0.795,-5.6 0.115,-0.44 0.469,-2.87 0.788,-5.4 0.318,-2.53 0.69,-4.983 0.827,-5.451 0.203,-0.696 -0.202,-1.197 -2.233,-2.76 l -2.482,-1.91 0.297,-2.239 c 0.164,-1.232 0.53,-3.95 0.814,-6.04 0.284,-2.09 0.799,-6.14 1.144,-9 0.346,-2.86 0.741,-5.65 0.877,-6.2 0.136,-0.55 0.492,-2.89 0.791,-5.2 1.308,-10.109 1.502,-11.2 1.997,-11.2 0.302,0 0.572,0.748 0.686,1.9 m 75.666,8.6 c -0.117,1.595 -0.379,4.97 -0.582,7.5 -0.204,2.53 -0.642,8.56 -0.975,13.4 -0.332,4.84 -0.788,10.005 -1.012,11.477 -0.224,1.472 -0.409,3.182 -0.411,3.8 -0.004,0.991 -0.327,1.28 -2.755,2.457 l -2.75,1.333 -0.267,4.267 c -0.146,2.346 -0.451,6.156 -0.677,8.466 -0.477,4.881 -1.313,15.542 -2.134,27.2 -1.1,15.634 -0.48,13.807 -5.475,16.126 -4.533,2.104 -4.081,0.933 -4.746,12.274 -0.239,4.07 -0.517,7.644 -0.617,7.942 -0.1,0.299 -0.359,3.179 -0.576,6.4 -0.216,3.222 -0.657,8.828 -0.979,12.458 -1.08,12.153 -1.486,16.955 -2.029,24 -1.066,13.843 -1.459,18.62 -1.632,19.852 -0.234,1.651 -14.519,9.006 -15.666,8.066 -1.057,-0.866 -10.094,-12.407 -10.084,-12.878 0.006,-0.242 0.455,-1.52 0.999,-2.84 0.543,-1.32 0.989,-2.553 0.99,-2.74 0.001,-0.186 0.265,-0.906 0.585,-1.6 0.321,-0.693 1.406,-3.51 2.41,-6.26 1.004,-2.75 1.987,-5.36 2.183,-5.8 0.197,-0.44 0.54,-1.34 0.762,-2 0.222,-0.66 0.753,-2.1 1.179,-3.2 0.426,-1.1 1.698,-4.52 2.826,-7.6 1.129,-3.08 2.233,-5.913 2.455,-6.295 0.221,-0.382 0.403,-0.922 0.404,-1.2 0.002,-0.278 0.266,-1.009 0.587,-1.625 0.322,-0.616 0.758,-1.696 0.97,-2.4 0.356,-1.183 2.832,-7.839 3.6,-9.68 0.914,-2.19 2.041,-5.253 2.041,-5.547 0,-0.183 0.263,-0.899 0.583,-1.593 0.321,-0.693 1.402,-3.51 2.402,-6.26 1,-2.75 1.974,-5.276 2.166,-5.613 0.191,-0.337 0.474,-1.19 0.629,-1.896 0.155,-0.705 0.448,-1.385 0.651,-1.51 0.818,-0.506 0.22,-1.742 -2.446,-5.051 l -2.796,-3.47 0.857,-2.33 c 0.471,-1.282 1.194,-3.085 1.605,-4.008 0.412,-0.923 0.749,-1.845 0.749,-2.049 0,-0.32 0.599,-1.842 1.998,-5.073 0.19,-0.44 0.562,-1.52 0.827,-2.4 0.264,-0.88 0.587,-1.78 0.718,-2 0.132,-0.22 0.53,-1.21 0.887,-2.2 1.019,-2.832 3.151,-8.519 3.524,-9.4 0.187,-0.44 0.708,-1.79 1.16,-3 0.451,-1.21 1.465,-3.864 2.253,-5.897 0.788,-2.034 1.439,-3.834 1.447,-4 0.007,-0.167 0.361,-1.023 0.786,-1.903 0.425,-0.88 0.779,-1.802 0.786,-2.049 0.008,-0.247 0.387,-1.293 0.843,-2.324 l 0.83,-1.875 -1.863,-2.262 c -1.999,-2.429 -2.085,-3.022 -0.839,-5.822 0.31,-0.697 0.749,-1.808 0.974,-2.468 0.226,-0.66 0.794,-2.19 1.263,-3.4 0.468,-1.21 1.459,-3.82 2.201,-5.8 0.742,-1.98 1.701,-4.5 2.13,-5.6 0.874,-2.242 4.671,-12.347 5.553,-14.779 1.198,-3.305 1.772,-3.045 1.498,0.679 M 117.354,43.3 c 1.686,3.56 4.766,9.994 9.241,19.3 1.163,2.42 2.865,5.984 3.781,7.92 l 1.666,3.521 -1.624,2.379 -1.624,2.379 3.043,6.301 c 1.674,3.465 3.585,7.47 4.247,8.9 0.663,1.43 2.248,4.76 3.522,7.4 2.467,5.111 6.724,13.965 9.706,20.183 l 1.814,3.782 -2.196,3.17 c -1.207,1.744 -2.278,3.386 -2.379,3.649 -0.101,0.263 0.74,2.444 1.87,4.847 2.692,5.728 6.967,14.705 12.343,25.921 1.78,3.713 3.236,6.807 3.236,6.876 0,0.068 1.33,2.88 2.955,6.248 3.107,6.44 5.946,12.391 8.932,18.724 0.985,2.09 2.32,4.867 2.967,6.171 l 1.175,2.37 -4.314,6.417 c -2.373,3.529 -4.427,6.576 -4.565,6.772 -0.138,0.196 -0.853,0.09 -1.6,-0.238 -0.742,-0.327 -3.33,-1.345 -5.75,-2.263 -8.207,-3.113 -7.773,-2.874 -8.02,-4.429 -0.121,-0.77 -0.389,-2.12 -0.595,-3 -0.206,-0.88 -0.571,-3.125 -0.811,-4.989 -0.24,-1.863 -0.516,-3.518 -0.614,-3.676 -0.098,-0.158 -0.434,-1.963 -0.748,-4.011 -0.662,-4.329 -1.947,-12.171 -2.838,-17.324 -0.628,-3.632 -1.627,-9.661 -2.739,-16.537 -0.333,-2.056 -0.698,-4.036 -0.811,-4.4 -0.114,-0.365 -0.48,-2.463 -0.814,-4.663 -0.333,-2.2 -0.863,-5.53 -1.177,-7.4 -0.313,-1.87 -0.796,-4.75 -1.071,-6.4 -0.604,-3.609 -0.635,-3.646 -4.162,-4.987 -1.54,-0.585 -3.195,-1.224 -3.678,-1.42 -0.612,-0.248 -0.949,-0.817 -1.112,-1.875 -0.128,-0.835 -0.422,-2.468 -0.653,-3.63 -0.231,-1.161 -0.69,-3.861 -1.02,-6 -0.727,-4.706 -1.879,-11.807 -2.707,-16.688 -0.336,-1.98 -0.961,-5.76 -1.388,-8.4 -2.605,-16.076 -1.986,-14.541 -6.521,-16.175 -1.247,-0.45 -1.558,-1.362 -2.529,-7.425 -0.352,-2.2 -0.905,-5.62 -1.23,-7.6 -0.324,-1.98 -0.839,-5.258 -1.144,-7.285 -0.305,-2.026 -0.655,-4.006 -0.777,-4.4 -0.123,-0.393 -0.512,-2.605 -0.866,-4.915 -0.353,-2.31 -0.737,-4.785 -0.852,-5.5 -0.388,-2.396 0.641,-1.38 2.431,2.4 m 226.093,33.828 c -0.091,0.149 -0.832,1.982 -1.646,4.072 -3.346,8.594 -4.362,11.215 -6.046,15.6 -0.972,2.53 -2.416,6.236 -3.208,8.236 l -1.441,3.636 -2.585,0.514 c -1.69,0.336 -2.664,0.738 -2.815,1.164 -0.206,0.579 -2.312,6.053 -5.714,14.85 -0.638,1.65 -1.813,4.71 -2.611,6.8 -7.444,19.498 -7.904,20.578 -8.823,20.705 -0.417,0.057 -1.748,0.298 -2.958,0.535 -1.21,0.236 -2.569,0.499 -3.021,0.583 -0.602,0.112 -1.113,0.926 -1.924,3.065 -0.606,1.601 -1.263,3.272 -1.458,3.712 -0.195,0.44 -0.836,2.06 -1.425,3.6 -0.588,1.54 -1.29,3.34 -1.561,4 -0.27,0.66 -0.87,2.19 -1.332,3.4 -1.627,4.255 -5.374,13.918 -9.118,23.513 -0.969,2.482 -1.761,4.614 -1.761,4.739 0,0.125 -0.255,0.794 -0.567,1.488 -1.415,3.144 -2.233,5.197 -2.235,5.611 -0.002,0.247 -0.235,0.899 -0.519,1.449 -0.284,0.55 -0.941,2.17 -1.459,3.6 -1.036,2.855 -2.264,5.866 -2.776,6.8 -0.327,0.598 -1.912,0.941 -10.215,2.21 -4.61,0.705 -4.103,1.025 -6.029,-3.81 -0.833,-2.09 -1.836,-4.526 -2.228,-5.414 -1.441,-3.258 -1.413,-3.539 0.593,-6.066 1.013,-1.276 1.975,-2.503 2.138,-2.726 0.163,-0.223 1.917,-2.535 3.897,-5.137 1.98,-2.602 4.23,-5.602 5,-6.666 1.368,-1.893 7.786,-10.374 16.034,-21.191 14.374,-18.85 13.568,-17.596 12.636,-19.662 -0.333,-0.736 -0.97,-2.195 -1.416,-3.241 l -0.812,-1.904 1.906,-2.496 c 1.048,-1.374 3.921,-5.16 6.384,-8.415 4.568,-6.037 7.947,-10.452 9.436,-12.332 0.458,-0.577 1.192,-1.553 1.632,-2.169 0.44,-0.616 2.571,-3.437 4.736,-6.27 l 3.937,-5.15 -0.656,-1.48 c -0.361,-0.815 -0.842,-1.818 -1.07,-2.229 -0.451,-0.816 0.35,-2.121 4.699,-7.652 1.211,-1.54 4.031,-5.23 6.266,-8.2 6.969,-9.26 9.541,-12.414 9.928,-12.175 0.205,0.126 0.298,0.353 0.207,0.503 M 49.932,221.442 c 6.968,3.433 14.682,7.228 17.143,8.432 l 4.475,2.19 0.246,2.268 c 0.425,3.918 0.218,3.684 5.502,6.228 2.696,1.299 13.019,6.365 22.94,11.26 l 18.038,8.899 0.362,4.316 0.362,4.317 2.2,1.099 c 1.21,0.605 16.06,7.96 33,16.345 16.94,8.386 31.79,15.751 33,16.368 l 2.2,1.121 0.498,7.935 c 0.299,4.768 0.351,8.026 0.131,8.162 -0.201,0.124 -2.135,0.737 -4.297,1.362 -2.163,0.624 -4.292,1.288 -4.732,1.476 -5.084,2.161 -5.827,1.998 -10.263,-2.252 -1.244,-1.193 -3.044,-2.821 -4,-3.618 -0.955,-0.797 -3.807,-3.379 -6.337,-5.737 -2.53,-2.359 -5.59,-5.16 -6.8,-6.225 -2.275,-2.003 -3.765,-3.353 -8.596,-7.788 -1.558,-1.43 -3.831,-3.5 -5.052,-4.6 -1.22,-1.1 -6.766,-6.14 -12.323,-11.2 -11.525,-10.494 -10.3,-9.78 -14.475,-8.433 -4.836,1.56 -3.888,2.095 -15.576,-8.803 -2.102,-1.96 -5.519,-5.094 -7.594,-6.964 -2.075,-1.87 -6.102,-5.56 -8.949,-8.2 -4.665,-4.326 -8.076,-7.395 -9.882,-8.892 -0.548,-0.454 -1.059,-0.402 -3.315,0.339 l -2.667,0.875 -1.285,-1.161 c -0.707,-0.638 -2.636,-2.421 -4.287,-3.961 -1.65,-1.54 -4.615,-4.24 -6.589,-6 -1.973,-1.76 -5.843,-5.282 -8.599,-7.827 -2.756,-2.545 -5.596,-5.14 -6.311,-5.766 -1.194,-1.046 -1.643,-1.807 -1.068,-1.807 0.128,0 5.933,2.809 12.9,6.242 m 167.144,36.79 c 0.262,1.962 0.753,5.728 1.09,8.368 0.338,2.64 0.722,5.247 0.855,5.793 0.132,0.545 0.492,2.975 0.799,5.4 0.307,2.424 0.922,6.927 1.367,10.007 0.445,3.08 1.076,7.67 1.401,10.2 0.325,2.53 0.687,4.96 0.804,5.4 0.117,0.44 0.477,2.96 0.799,5.6 0.927,7.593 1.757,13.652 2.008,14.666 0.127,0.514 0.481,2.914 0.786,5.334 0.306,2.42 0.926,7.1 1.378,10.4 0.453,3.3 0.826,6.218 0.83,6.484 0.006,0.411 -4.854,4.496 -11.495,9.662 l -1.702,1.325 -2.098,-1.736 c -1.154,-0.954 -2.278,-1.871 -2.498,-2.037 -0.286,-0.216 -7.385,-5.961 -8.492,-6.872 -0.05,-0.042 0.184,-1.864 0.521,-4.051 0.612,-3.977 1.181,-8.171 2.331,-17.175 0.338,-2.64 0.717,-5.22 0.843,-5.734 0.242,-0.985 1.046,-6.791 2.003,-14.466 0.316,-2.53 0.684,-5.05 0.818,-5.6 0.134,-0.55 0.487,-2.89 0.785,-5.2 0.297,-2.31 0.904,-6.81 1.348,-10 0.444,-3.19 1.081,-7.87 1.417,-10.4 0.335,-2.53 0.705,-5.05 0.821,-5.6 0.18,-0.844 0.891,-5.93 1.695,-12.119 0.332,-2.551 1.08,-1.442 1.586,2.351"
       stroke="none"
       fill="#050505"
       fill-rule="evenodd"
       sodipodi:nodetypes="ccscsccccccccccccccssccscccsccccccscccccsccsccccsscccccccccccccccsccccccccccssccccccsccccccccccscccscscsccccccsccccscccscsscccccccsccccccccccccscsccccccsscccscccscccccccccsscscccccccscccccscccccscscsccccsccccccccccccccccscscssccccccscscccccccsccccccccscccccccscccccccccccccccsccscccccscccscscscccccccccccccccccccccccccscccccccsccccsccscccccsssccccccccscccccccccccscccccccccccccccccccccsscccccccscscccccsssccccccccccccccscscccc"
       style="fill:#ffffff" />
  </g>
</svg>
